<svg width="444" height="141" viewBox="0 0 444 141" fill="none" xmlns="http://www.w3.org/2000/svg">
<path d="M398.293 4.66286L405.364 6.88467C408.086 7.74217 409.529 10.6463 408.568 13.3431L372.044 111.457L362.106 107.566L391.766 8.06281C391.972 7.41798 392.305 6.81675 392.747 6.29466C393.188 5.77258 393.729 5.34026 394.338 5.02326C394.946 4.70627 395.61 4.51105 396.289 4.44915C396.968 4.38724 397.65 4.45991 398.293 4.66286Z" fill="#A06841"/>
<path d="M20.007 44.6148H2.00703V34.6248H51.957V44.6148H34.047V93.0348H20.007V44.6148Z" fill="#EDB820"/>
<path d="M74.1624 93.9348C70.0224 93.9348 66.8124 93.5448 64.5324 92.7648C62.3124 91.9848 60.6924 90.6048 59.6724 88.6248C58.7124 86.6448 58.2324 83.7948 58.2324 80.0748C58.2324 76.7748 58.6824 74.2248 59.5824 72.4248C60.5424 70.5648 62.1324 69.2448 64.3524 68.4648C66.6324 67.6848 69.8424 67.2948 73.9824 67.2948H87.0324V60.3648C87.0324 58.7448 86.7024 57.5148 86.0424 56.6748C85.4424 55.7748 84.3924 55.1448 82.8924 54.7848C81.4524 54.4248 79.3224 54.2448 76.5024 54.2448C72.0024 54.2448 67.0224 54.6048 61.5624 55.3248V49.3848C67.5024 48.8448 72.8724 48.5748 77.6724 48.5748C82.7124 48.5748 86.4324 48.9648 88.8324 49.7448C91.2324 50.4648 92.8824 51.7548 93.7824 53.6148C94.6824 55.4748 95.1324 58.3548 95.1324 62.2548V93.0348H87.3024V88.8948C86.6424 92.2548 82.2624 93.9348 74.1624 93.9348ZM75.5124 88.6248C78.4524 88.6248 80.9424 88.4148 82.9824 87.9948C85.6824 87.4548 87.0324 86.1948 87.0324 84.2148V72.3348H74.5224C71.9424 72.3348 70.0824 72.5448 68.9424 72.9648C67.8024 73.3248 67.0524 74.0448 66.6924 75.1248C66.3324 76.2048 66.1524 77.9448 66.1524 80.3448C66.1524 82.5048 66.3624 84.1848 66.7824 85.3848C67.2024 86.5248 67.9524 87.3648 69.0324 87.9048C70.1124 88.3848 71.7324 88.6248 73.8924 88.6248H75.5124ZM122.5 93.9348C117.88 93.9348 112.9 93.5748 107.56 92.8548V86.6448C114.58 87.7848 119.62 88.3548 122.68 88.3548C126.52 88.3548 129.28 87.9948 130.96 87.2748C132.64 86.4948 133.48 85.0848 133.48 83.0448V78.6348C133.48 76.7748 132.85 75.4548 131.59 74.6748C130.33 73.8948 128.29 73.5048 125.47 73.5048H120.52C116.02 73.5048 112.57 72.5748 110.17 70.7148C107.83 68.8548 106.66 66.2448 106.66 62.8848V58.8348C106.66 51.9948 113.14 48.5748 126.1 48.5748C127.06 48.5748 131.47 48.8148 139.33 49.2948V55.1448C133.99 54.3048 129.46 53.8848 125.74 53.8848C121.48 53.8848 118.57 54.3048 117.01 55.1448C115.45 55.9848 114.67 57.3948 114.67 59.3748V63.0648C114.67 66.0048 117.34 67.4748 122.68 67.4748H127.72C136.9 67.4748 141.49 70.8948 141.49 77.7348V81.5148C141.49 86.0148 139.93 89.2248 136.81 91.1448C133.69 93.0048 128.92 93.9348 122.5 93.9348ZM152.686 30.0348H160.786V54.7848C161.626 50.6448 166.396 48.5748 175.096 48.5748C180.676 48.5748 184.576 49.5948 186.796 51.6348C189.076 53.6148 190.216 56.7648 190.216 61.0848V93.0348H182.116V61.6248C182.116 60.4848 182.026 59.5548 181.846 58.8348C181.666 58.1148 181.306 57.3948 180.766 56.6748C179.566 55.1748 176.896 54.4248 172.756 54.4248C169.456 54.4248 166.936 54.6648 165.196 55.1448C163.516 55.5648 162.346 56.2848 161.686 57.3048C161.086 58.3248 160.786 59.7648 160.786 61.6248V93.0348H152.686V30.0348ZM223.268 93.9348C220.628 93.9348 218.498 93.8448 216.878 93.6648C215.258 93.4848 213.578 93.1248 211.838 92.5848C209.978 92.0448 208.508 91.2648 207.428 90.2448C206.348 89.1648 205.448 87.6648 204.728 85.7448C204.008 83.8248 203.648 81.5748 203.648 78.9948V49.4748C203.648 46.7748 204.068 44.4048 204.908 42.3648C205.808 40.3248 206.948 38.7048 208.328 37.5048C209.528 36.4848 211.148 35.6748 213.188 35.0748C215.228 34.4148 217.268 33.9948 219.308 33.8148C221.588 33.6948 223.658 33.6348 225.518 33.6348C229.178 33.6348 234.098 33.9048 240.278 34.4448V40.5648C234.098 39.7848 228.788 39.3948 224.348 39.3948C220.988 39.3948 218.438 39.6348 216.698 40.1148C214.958 40.5948 213.668 41.5548 212.828 42.9948C212.048 44.3748 211.658 46.4748 211.658 49.2948V58.4748H224.888C227.888 58.4748 230.138 58.5348 231.638 58.6548C233.138 58.7748 234.728 59.0148 236.408 59.3748C238.088 59.7348 239.318 60.3348 240.098 61.1748C240.938 62.0148 241.658 63.2148 242.258 64.7748C242.798 66.2748 243.068 68.1648 243.068 70.4448V78.9948C243.068 85.4748 241.028 89.6748 236.948 91.5948C234.968 92.4948 232.988 93.0948 231.008 93.3948C229.028 93.7548 226.448 93.9348 223.268 93.9348ZM223.448 88.6248C226.628 88.6248 228.998 88.4148 230.558 87.9948C232.178 87.5148 233.318 86.6448 233.978 85.3848C234.698 84.0648 235.058 82.0848 235.058 79.4448V70.7148C235.058 68.7348 234.758 67.2648 234.158 66.3048C233.558 65.2848 232.448 64.5948 230.828 64.2348C229.208 63.8748 226.718 63.6948 223.358 63.6948H211.658V79.4448C211.658 82.0848 212.018 84.0648 212.738 85.3848C213.458 86.6448 214.628 87.5148 216.248 87.9948C217.868 88.4148 220.268 88.6248 223.448 88.6248ZM274.845 93.9348C261.525 93.9348 254.865 89.4948 254.865 80.6148V63.4248C254.865 58.1448 256.365 54.3648 259.365 52.0848C262.425 49.7448 267.345 48.5748 274.125 48.5748C280.545 48.5748 285.165 49.6848 287.985 51.9048C290.865 54.1248 292.305 57.9648 292.305 63.4248V73.0548H263.055V79.6248C263.055 82.6248 264.105 84.7848 266.205 86.1048C268.305 87.4248 271.545 88.0848 275.925 88.0848C280.065 88.0848 284.955 87.3648 290.595 85.9248V92.1348C285.075 93.3348 279.825 93.9348 274.845 93.9348ZM284.205 67.7448V60.9048C284.205 58.2648 283.395 56.4648 281.775 55.5048C280.215 54.4848 277.515 53.9748 273.675 53.9748C269.955 53.9748 267.255 54.4848 265.575 55.5048C263.895 56.4648 263.055 58.2648 263.055 60.9048V67.7448H284.205ZM323.009 93.9348C309.689 93.9348 303.029 89.4948 303.029 80.6148V63.4248C303.029 58.1448 304.529 54.3648 307.529 52.0848C310.589 49.7448 315.509 48.5748 322.289 48.5748C328.709 48.5748 333.329 49.6848 336.149 51.9048C339.029 54.1248 340.469 57.9648 340.469 63.4248V73.0548H311.219V79.6248C311.219 82.6248 312.269 84.7848 314.369 86.1048C316.469 87.4248 319.709 88.0848 324.089 88.0848C328.229 88.0848 333.119 87.3648 338.759 85.9248V92.1348C333.239 93.3348 327.989 93.9348 323.009 93.9348ZM332.369 67.7448V60.9048C332.369 58.2648 331.559 56.4648 329.939 55.5048C328.379 54.4848 325.679 53.9748 321.839 53.9748C318.119 53.9748 315.419 54.4848 313.739 55.5048C312.059 56.4648 311.219 58.2648 311.219 60.9048V67.7448H332.369Z" fill="white"/>
<path d="M388.014 89.6509C387.877 89.1858 387.701 88.8132 387.498 88.4919L387.335 88.5893C386.458 89.2283 385.927 90.2319 385.457 91.1997C382.485 97.3293 380.504 103.891 379.586 110.641C379.511 111.198 379.446 111.772 379.429 112.33C380.004 112.103 380.573 111.787 381.131 111.338C382.477 110.256 383.691 108.914 385.315 108.318C386.992 107.714 388.351 109.035 388.506 110.584C388.663 106.24 389.76 101.93 391.775 98.0849C392.046 97.5626 392.342 97.0249 392.562 96.4749C392.115 96.683 391.607 96.7296 391.131 96.5363C389.899 96.13 389.119 94.2552 388.801 93.1173C388.488 91.988 388.346 90.7923 388.014 89.6509ZM400.373 106.254C402.396 98.9466 405.772 93.4984 407.914 94.0837C410.061 94.6777 410.156 101.083 408.138 108.399C406.121 115.715 402.546 121.317 400.403 120.732C398.261 120.147 398.351 113.561 400.373 106.254Z" fill="#C8C6CD"/>
<path d="M333.166 83.3914C341.841 98.3262 346.428 103.031 358.493 107.036C362.106 108.234 365.725 109.441 369.339 110.639C373.275 111.948 377.438 114.32 381.128 111.351C382.473 110.269 383.688 108.928 385.312 108.332C386.845 107.778 388.484 108.966 388.384 110.574C388.281 112.08 388.086 113.803 388.715 115.209C389.315 116.528 390.475 117.594 391.853 118.03L400.39 120.728C400.39 120.728 404.222 119.56 407.669 108.784C411.115 98.0072 408.122 94.18 408.122 94.18L400.151 91.6104C398.809 91.1764 397.365 91.4092 396.164 92.1486C394.771 93.0145 394.172 94.4895 393.193 95.7371C393.009 95.975 392.472 97.0283 391.136 96.5446C389.904 96.1383 389.124 94.2634 388.806 93.1256C388.483 91.9791 388.346 90.792 388.009 89.642C387.363 87.4074 385.924 87.0434 383.96 86.3865C382.223 85.816 371.767 82.3412 368.282 81.1829C361.316 78.8749 358.435 90.4435 358.435 90.4435C356.619 96.1839 334.5 81.234 334.5 81.234C333.057 80.0451 331.968 81.3234 333.166 83.3914Z" fill="#EDB821"/>
<path d="M365.573 103.232C361.909 100.563 356.74 99.3142 350.657 97.295C348.914 96.7159 347.042 95.7831 345.39 94.6726C344.772 94.261 344.019 94.9896 344.42 95.6235C345.735 97.7502 347.53 99.2761 349.468 100.67C352.183 102.626 355.309 103.905 358.438 105.09C360.583 105.895 365.788 107.692 369.069 108.821C369.681 109.026 370.045 108.367 369.72 107.804C368.766 106.184 368.314 105.231 365.573 103.232ZM393.987 116.885C396.589 117.383 395.906 115.182 396.686 110.106C397.241 106.527 393.886 105.081 392.016 106.161C390.34 107.138 389.692 108.083 389.613 111.425C389.529 114.759 391.622 116.433 393.987 116.885Z" fill="#F1C855"/>
</svg>
